HIERARCHY
ROOT Hips
{
	OFFSET 0.000000 0.000000 0.000000
	CHANNELS 6 Xposition Yposition Zposition Xrotation Yrotation Zrotation
	JOINT LeftUpLeg_virtual
	{
		OFFSET 0.000000 0.000000 0.000000
		CHANNELS 3 Xrotation Yrotation Zrotation
		JOINT LeftUpLeg
		{
			OFFSET 10.205400 -3.823500 0.155100
			CHANNELS 3 Xrotation Yrotation Zrotation
			JOINT LeftLeg
			{
				OFFSET 0.708757 -12.982077 0.567790
				CHANNELS 3 Xrotation Yrotation Zrotation
				JOINT LeftFoot
				{
					OFFSET -0.708756 -10.717838 -2.184338
					CHANNELS 3 Xrotation Yrotation Zrotation
					JOINT LeftToeBase
					{
						OFFSET 0.108149 -7.191104 7.560241
						CHANNELS 3 Xrotation Yrotation Zrotation
						JOINT LeftToe_End
						{
							OFFSET 0.070230 0.081724 4.490308
							CHANNELS 3 Xrotation Yrotation Zrotation
							End Site
							{
								OFFSET 0 0 0
							}
						}
					}
				}
			}
		}
	}
	JOINT RightUpLeg_virtual
	{
		OFFSET 0.000000 0.000000 0.000000
		CHANNELS 3 Xrotation Yrotation Zrotation
		JOINT RightUpLeg
		{
			OFFSET -10.205400 -3.823500 0.005500
			CHANNELS 3 Xrotation Yrotation Zrotation
			JOINT RightLeg
			{
				OFFSET -0.708756 -12.982134 0.610632
				CHANNELS 3 Xrotation Yrotation Zrotation
				JOINT RightFoot
				{
					OFFSET 0.708754 -10.717769 -1.945823
					CHANNELS 3 Xrotation Yrotation Zrotation
					JOINT RightToeBase
					{
						OFFSET -0.108140 -7.191069 7.372968
						CHANNELS 3 Xrotation Yrotation Zrotation
						JOINT RightToe_End
						{
							OFFSET -0.070227 0.081735 4.479403
							CHANNELS 3 Xrotation Yrotation Zrotation
							End Site
							{
								OFFSET 0 0 0
							}
						}
					}
				}
			}
		}
	}
	JOINT Spine_virtual
	{
		OFFSET 0.000000 0.000000 0.000000
		CHANNELS 3 Xrotation Yrotation Zrotation
		JOINT Spine
		{
			OFFSET 0.000000 6.876099 0.125700
			CHANNELS 3 Xrotation Yrotation Zrotation
			JOINT Spine1
			{
				OFFSET 0.000000 5.730043 0.104720
				CHANNELS 3 Xrotation Yrotation Zrotation
				JOINT Spine1_split
				{
					OFFSET 0.000000 5.730043 0.104720
					CHANNELS 3 Xrotation Yrotation Zrotation
					JOINT Spine2
					{
						OFFSET 0.000000 5.730043 0.104720
						CHANNELS 3 Xrotation Yrotation Zrotation
						JOINT Neck_virtual
						{
							OFFSET 0.000000 0.000000 0.000000
							CHANNELS 3 Xrotation Yrotation Zrotation
							JOINT Neck
							{
								OFFSET 0.000000 10.314075 0.188496
								CHANNELS 3 Xrotation Yrotation Zrotation
								JOINT Head
								{
									OFFSET 0.000000 7.643700 -2.377400
									CHANNELS 3 Xrotation Yrotation Zrotation
									JOINT HeadTop_End
									{
										OFFSET 0.000000 43.788605 -13.619600
										CHANNELS 3 Xrotation Yrotation Zrotation
										End Site
										{
											OFFSET 0 0 0
										}
									}
								}
							}
						}
						JOINT LeftShoulder_virtual
						{
							OFFSET 0.000000 0.000000 0.000000
							CHANNELS 3 Xrotation Yrotation Zrotation
							JOINT LeftShoulder
							{
								OFFSET 2.196100 4.412489 0.087492
								CHANNELS 3 Xrotation Yrotation Zrotation
								JOINT LeftShoulder_split
								{
									OFFSET 2.196100 4.412489 0.087492
									CHANNELS 3 Xrotation Yrotation Zrotation
									JOINT LeftArm
									{
										OFFSET 8.771219 -2.981674 -0.026999
										CHANNELS 3 Xrotation Yrotation Zrotation
										JOINT LeftForeArm
										{
											OFFSET 8.512804 0.000000 -0.000000
											CHANNELS 3 Xrotation Yrotation Zrotation
											JOINT LeftHand
											{
												OFFSET 18.484802 0.000000 -0.000000
												CHANNELS 3 Xrotation Yrotation Zrotation
												End Site
												{
													OFFSET 0 0 0
												}
											}
										}
									}
								}
							}
						}
						JOINT RightShoulder_virtual
						{
							OFFSET 0.000000 0.000000 0.000000
							CHANNELS 3 Xrotation Yrotation Zrotation
							JOINT RightShoulder
							{
								OFFSET -2.196100 4.412496 0.070690
								CHANNELS 3 Xrotation Yrotation Zrotation
								JOINT RightShoulder_split
								{
									OFFSET -2.196100 4.412496 0.070690
									CHANNELS 3 Xrotation Yrotation Zrotation
									JOINT RightArm
									{
										OFFSET -8.771282 -2.981682 -0.094208
										CHANNELS 3 Xrotation Yrotation Zrotation
										JOINT RightForeArm
										{
											OFFSET -8.494598 0.000000 0.000000
											CHANNELS 3 Xrotation Yrotation Zrotation
											JOINT RightHand
											{
												OFFSET -18.483803 0.000000 0.000001
												CHANNELS 3 Xrotation Yrotation Zrotation
												End Site
												{
													OFFSET 0 0 0
												}
											}
										}
									}
								}
							}
						}
					}
				}
			}
		}
	}
}
MOTION
Frames: 5
Frame Time: 0.03333333
0.097343 29.577168 -0.144527 0.000000 0.000000 0.000000 -7.324632 -48.001501 0.169649 -18.711776 12.962647 18.588585 54.076653 1.789669 4.509807 -35.460160 -5.901431 -15.736964 -5.146601 0.447342 1.302513 0.000000 0.000000 0.000000 -9.109379 -46.807532 0.263681 -17.398182 -7.596358 -40.541667 53.295840 -5.237469 -9.570369 -28.240269 -10.214005 25.178920 -5.404782 0.981877 -0.520066 0.000000 0.000000 0.000000 -7.444762 -48.371567 -0.898845 11.109056 7.492541 -2.493162 1.213078 1.521954 -0.650923 0.304079 -0.139048 1.377746 0.000000 0.000000 0.000000 0.379984 2.115480 -0.502810 2.974326 13.920159 5.962527 7.142205 19.094448 -2.720860 0.000000 0.000000 0.000000 2.860419 1.335284 -0.053910 1.165721 3.783956 -7.078339 -5.249168 -5.015442 -3.662539 -50.118893 6.279950 -47.257030 179.736005 -72.228144 -177.666758 0.000000 0.000000 0.000000 2.787780 1.823747 -0.358780 3.731032 11.082099 -5.534399 0.969392 -4.745749 -0.991353 -49.983290 20.947359 87.340935 177.072285 71.544346 -176.841930 0.000000 0.000000 0.000000 
0.225565 29.199919 0.494637 0.000000 0.000000 0.000000 -8.333683 -49.779887 -0.492637 -20.779259 11.785800 19.058905 57.318845 2.545797 3.839724 -33.499219 -4.893879 -16.480796 -6.577476 0.530209 0.870347 0.000000 0.000000 0.000000 -9.747661 -47.696287 -0.115280 -17.691454 -7.067499 -41.167326 56.041087 -4.525286 -9.406333 -30.477534 -10.514408 24.667665 -2.364731 0.762043 -0.274334 0.000000 0.000000 0.000000 -7.782987 -49.003459 -1.106265 11.852875 7.682393 -2.533890 1.370193 1.374245 -0.618288 0.616689 -0.146882 1.408680 0.000000 0.000000 0.000000 0.462641 2.002714 -0.553306 2.998027 13.802065 5.907402 7.289496 19.205625 -2.656127 0.000000 0.000000 0.000000 2.800542 1.285425 0.018226 1.075841 3.496554 -7.380438 -3.128807 -6.910791 -3.270695 -52.383002 6.376210 -47.957545 176.402818 -72.315229 178.630415 0.000000 0.000000 0.000000 2.795915 1.732945 -0.383550 3.833942 11.693416 -5.539718 1.469035 -4.884300 0.002402 -51.213240 23.035173 87.552336 177.556423 72.125288 -177.119769 0.000000 0.000000 0.000000 
0.255097 28.490526 1.331007 0.000000 0.000000 0.000000 -9.235736 -51.635001 -1.198902 -24.802184 10.647610 20.459270 64.398889 2.510610 2.331592 -32.893730 -5.283060 -16.583998 -9.429979 -0.010372 2.944456 0.000000 0.000000 0.000000 -10.021860 -48.421608 -0.437071 -18.136983 -5.833268 -41.925624 59.313991 -3.174220 -9.780582 -31.955996 -11.292144 25.526500 -1.852343 0.554393 0.363111 0.000000 0.000000 0.000000 -8.399756 -50.042890 -1.484616 13.044511 8.213277 -2.310346 1.231084 1.235752 -0.765107 0.562850 -0.160351 1.095523 0.000000 0.000000 0.000000 0.126235 1.820876 -0.751684 2.587004 13.924839 5.893527 7.960143 19.310697 -2.313006 0.000000 0.000000 0.000000 2.462391 1.198027 -0.061429 0.936453 3.233833 -7.994648 -1.581754 -7.560638 -2.555818 -53.225769 6.171655 -48.405964 171.412517 -72.893766 173.259633 0.000000 0.000000 0.000000 2.348649 1.555265 -0.547374 3.853548 12.397402 -5.349585 1.419032 -4.186493 0.489105 -52.190063 23.909677 86.851565 178.291078 73.089608 -178.159788 0.000000 0.000000 0.000000 
0.285424 27.593592 2.234241 0.000000 0.000000 0.000000 -9.880514 -53.319752 -1.749001 -30.875805 8.805517 22.887896 74.400479 0.532346 1.016306 -32.410501 -6.931576 -18.114375 -10.841237 -0.842259 5.683241 0.000000 0.000000 0.000000 -9.902075 -49.191268 -0.524853 -18.795366 -4.286064 -42.883414 62.455871 -1.426225 -10.532144 -32.410743 -12.151150 27.271866 -3.812440 0.313379 1.198204 0.000000 0.000000 0.000000 -9.095341 -51.592192 -1.900552 14.486666 8.950827 -1.864117 0.875987 1.200867 -1.070508 0.390224 0.300960 0.710328 0.000000 0.000000 0.000000 -0.560458 1.693119 -1.027723 1.659648 14.264220 5.912493 8.813744 19.678316 -1.927649 0.000000 0.000000 0.000000 1.865052 1.135779 -0.254322 0.806807 3.268423 -8.664098 -0.403951 -6.762174 -1.534960 -51.913187 6.937258 -47.865617 167.284802 -72.828996 168.858628 0.000000 0.000000 0.000000 1.492865 1.378452 -0.832400 3.762256 13.045123 -5.154551 1.308027 -2.850891 0.570188 -52.892695 23.388830 85.504679 179.910557 74.070663 179.457948 0.000000 0.000000 0.000000 
0.458187 26.654226 3.121546 0.000000 0.000000 0.000000 -10.256338 -55.030974 -1.983705 -38.092757 5.865875 25.906236 84.344012 -2.799462 0.513052 -30.889633 -9.609905 -21.230591 -11.158282 -1.677424 8.017883 0.000000 0.000000 0.000000 -9.724521 -50.114167 -0.373158 -20.095036 -2.559154 -44.470846 64.862372 0.382991 -11.239934 -32.258055 -12.591193 28.755793 -5.125003 0.205585 1.911805 0.000000 0.000000 0.000000 -9.546836 -53.375941 -2.067475 15.999563 9.595015 -1.303029 0.358430 1.282097 -1.484667 0.335253 0.698275 0.380963 0.000000 0.000000 0.000000 -1.377157 1.685394 -1.315964 0.420841 14.869293 5.882014 9.438539 20.611937 -1.785868 0.000000 0.000000 0.000000 1.091525 1.148997 -0.515401 0.701572 3.696470 -9.235772 0.349184 -5.054651 0.168760 -48.480539 9.656213 -46.038207 167.506264 -70.742093 168.938882 0.000000 0.000000 0.000000 0.385784 1.242798 -1.200573 3.519617 13.435682 -5.260779 1.288963 -1.779283 0.549502 -53.556514 22.572983 84.332885 -177.566272 74.970082 175.886578 0.000000 0.000000 0.000000 
